<svg version="1.1" id="Layer_1" xmlns="http://www.w3.org/2000/svg" xmlns:xlink="http://www.w3.org/1999/xlink" x="0px" y="0px"
	 width="100%" viewBox="0 0 976 1024" enable-background="new 0 0 976 1024" xml:space="preserve">
<path fill="#000000" opacity="1.000000" stroke="none" 
	d="
M210.958725,299.001770 
	C176.135559,320.578461 147.076294,347.789886 123.333138,380.902649 
	C138.207138,331.899353 161.275436,287.255280 193.627197,247.736282 
	C259.510193,167.257523 343.165710,115.830856 446.185974,99.003578 
	C655.444397,64.823410 814.959290,191.030441 873.559082,309.126984 
	C872.125061,310.745941 870.170471,310.177551 868.439941,310.180023 
	C829.445312,310.235962 790.450317,310.183014 751.456360,310.354492 
	C747.275635,310.372864 745.145813,308.302979 743.009705,305.343567 
	C720.125488,273.639984 692.060486,247.290375 659.562683,225.714951 
	C618.844543,198.682007 574.335693,181.594162 525.740112,175.086639 
	C491.739166,170.533508 457.999756,171.906265 424.313385,177.597076 
	C422.729462,177.864685 421.197754,178.441406 419.469513,179.456009 
	C524.679749,184.106491 610.958862,225.957428 677.072754,308.223938 
	C675.063110,310.911621 673.072693,310.183014 671.375977,310.184784 
	C626.382202,310.231842 581.388306,310.206543 536.394531,310.272522 
	C533.254883,310.277130 530.632996,309.524902 528.039124,307.712524 
	C494.680542,284.404053 458.095215,268.598419 418.083160,260.965790 
	C390.798157,255.760941 363.375732,254.113708 335.610870,256.943604 
	C290.925751,261.498077 249.605957,275.620972 210.958725,299.001770 
z"/>
<path fill="#000000" opacity="1.000000" stroke="none" 
	d="
M651.795044,730.790039 
	C587.895020,794.179260 510.851685,825.860229 421.401489,828.714233 
	C425.329895,831.614014 429.833252,831.623596 434.039917,832.344482 
	C459.253754,836.665405 484.703156,838.072021 510.195831,836.544312 
	C546.610046,834.362244 581.512207,825.555847 614.755737,810.455994 
	C665.899963,787.225159 707.974182,752.717957 741.606873,707.847900 
	C744.163696,704.436707 746.829407,702.953186 751.145874,702.968445 
	C789.638367,703.104492 828.131653,703.026489 866.624695,703.040833 
	C868.416260,703.041504 870.296387,702.646484 872.851685,704.241211 
	C851.186646,743.792053 823.862183,778.917175 790.420654,809.057800 
	C717.187927,875.061890 631.450500,912.478027 532.717346,917.129761 
	C422.956177,922.301025 326.592407,887.085327 243.839737,815.313232 
	C186.607208,765.674927 146.764313,704.110413 122.459869,631.647949 
	C125.584175,632.028259 126.337845,634.049133 127.435844,635.485718 
	C165.929321,685.849609 214.795746,721.935120 275.002502,742.172913 
	C298.112396,749.940979 321.902313,754.351868 346.340118,755.892517 
	C411.804382,760.019897 471.190399,742.770996 525.283020,706.257751 
	C528.475464,704.102905 531.632629,703.009277 535.478394,703.014709 
	C579.970520,703.077271 624.462769,703.041016 668.955017,703.039062 
	C670.758667,703.039001 672.613586,702.861206 674.837524,704.332458 
	C668.283203,714.133057 659.764771,722.002686 651.795044,730.790039 
z"/>
<path fill="#000000" opacity="1.000000" stroke="none" 
	d="
M126.664360,448.831787 
	C146.562744,397.240509 183.396729,364.487793 235.910126,349.951141 
	C278.152618,338.257568 319.951233,340.631805 360.301697,358.764313 
	C379.908264,367.574982 396.073151,381.145355 410.954102,396.403534 
	C413.385101,398.896179 413.034607,400.653168 410.780487,403.092590 
	C397.440186,417.529388 384.164398,432.028107 371.055939,446.675201 
	C367.990967,450.099884 366.216736,449.171997 363.630829,446.234222 
	C352.056152,433.084747 338.908722,421.743317 322.448792,415.281616 
	C266.385956,393.272888 205.445328,423.169861 193.499634,485.092621 
	C186.179703,523.036926 196.161072,556.274353 225.809708,582.064575 
	C245.395477,599.101440 268.861816,604.913025 294.608490,603.108948 
	C323.640564,601.074768 345.073578,585.789124 363.247192,564.704224 
	C366.548920,560.873596 368.495575,561.045715 371.897400,564.369141 
	C385.007416,577.176880 398.271454,589.831543 411.690948,602.314453 
	C414.652130,605.068909 414.431976,606.920410 412.078735,609.734802 
	C379.586761,648.593445 338.132019,668.556152 287.413361,669.346069 
	C248.896362,669.945923 213.447037,660.295349 182.447983,637.074463 
	C145.622223,609.488770 123.476295,572.863708 117.870918,526.902100 
	C114.638504,500.397827 117.681602,474.438812 126.664360,448.831787 
z"/>
<path fill="#000000" opacity="1.000000" stroke="none" 
	d="
M821.422974,452.864716 
	C821.425720,523.104370 821.425720,592.863098 821.425720,662.165466 
	C819.400208,663.835510 817.666870,663.356567 816.050293,663.359009 
	C795.892517,663.389648 775.734680,663.388367 755.576904,663.381775 
	C748.630127,663.379517 748.606384,663.362549 748.603455,656.552612 
	C748.589539,623.733521 748.584229,590.914429 748.585754,558.095337 
	C748.587952,511.959686 748.601929,465.824005 748.603088,419.688354 
	C748.603210,412.176483 747.768127,411.323303 740.339539,411.319733 
	C715.183655,411.307526 690.026917,411.213837 664.872559,411.408020 
	C660.226624,411.443878 658.434509,410.305298 658.511108,405.333282 
	C658.772827,388.344910 658.717468,371.348267 658.504395,354.358307 
	C658.449402,349.970306 659.891479,348.632751 664.246948,348.638062 
	C745.045532,348.736633 825.844360,348.727997 906.643066,348.629852 
	C910.812805,348.624786 912.157593,350.081635 912.124146,354.139130 
	C911.982666,371.296906 911.975220,388.457367 912.131836,405.614899 
	C912.170898,409.895264 910.767456,411.429199 906.356201,411.400696 
	C880.368408,411.232574 854.378967,411.309082 828.390076,411.315582 
	C821.688843,411.317261 821.401917,411.607697 821.397339,418.399628 
	C821.389709,429.727661 821.411072,441.055725 821.422974,452.864716 
z"/>
<path fill="#000000" opacity="1.000000" stroke="none" 
	d="
M542.168579,390.000000 
	C542.163757,458.150604 542.159058,525.801208 542.153870,593.451782 
	C542.153320,600.654602 542.229675,600.725830 549.357483,600.723389 
	C588.681519,600.709839 628.005615,600.698181 667.329651,600.691040 
	C674.084351,600.689819 674.123840,600.701477 674.113831,607.208313 
	C674.087891,624.037354 673.936218,640.866882 674.036255,657.695007 
	C674.061401,661.913086 672.767151,663.481567 668.302673,663.472778 
	C603.985107,663.345398 539.667236,663.388184 475.349457,663.373779 
	C469.101685,663.372375 468.923553,663.158569 468.923615,656.884766 
	C468.924377,556.575439 468.928894,456.266144 468.935730,355.956848 
	C468.936218,348.763031 468.947723,348.753143 476.112854,348.747650 
	C495.774872,348.732574 515.436890,348.722290 535.098877,348.719299 
	C542.159668,348.718201 542.167419,348.730164 542.170959,356.007507 
	C542.176392,367.171661 542.169983,378.335846 542.168579,390.000000 
z"/>
</svg>